<svg xmlns="http://www.w3.org/2000/svg" width="1070" height="620" viewBox="0 0 1070 620"><rect width="100%" height="100%" fill="#DDDDDD"/><path fill="#999999" d="M258.34 343.9h16.38v11.65h-50.4V343.9h18.46v-53.11q0-3.15.18-6.49l-13.1 10.96q-1.13.88-2.24 1.1-1.1.22-2.07.03-.98-.19-1.74-.66-.75-.47-1.13-1.04l-4.92-6.74 27.79-23.62h12.79v79.57Zm94.18-33.9q0 11.91-2.55 20.7-2.55 8.78-7.06 14.52-4.5 5.73-10.64 8.53-6.14 2.81-13.26 2.81t-13.2-2.81q-6.08-2.8-10.55-8.53-4.48-5.74-7-14.52-2.52-8.79-2.52-20.7 0-11.97 2.52-20.73 2.52-8.75 7-14.49 4.47-5.73 10.55-8.53 6.08-2.81 13.2-2.81 7.12 0 13.26 2.81 6.14 2.8 10.64 8.53 4.51 5.74 7.06 14.49 2.55 8.76 2.55 20.73Zm-16.06 0q0-9.89-1.45-16.38-1.45-6.49-3.88-10.33-2.42-3.84-5.57-5.39-3.15-1.54-6.55-1.54-3.34 0-6.46 1.54-3.12 1.55-5.51 5.39-2.4 3.84-3.82 10.33-1.41 6.49-1.41 16.38 0 9.89 1.41 16.38 1.42 6.49 3.82 10.33 2.39 3.85 5.51 5.39 3.12 1.54 6.46 1.54 3.4 0 6.55-1.54t5.57-5.39q2.43-3.84 3.88-10.33 1.45-6.49 1.45-16.38Zm25.07-45.55h62.94v6.74q0 3.03-.63 4.89-.63 1.85-1.26 3.11l-34.53 71.07q-1.07 2.2-3.02 3.75-1.95 1.54-5.23 1.54h-11.28l35.22-69.61q1.2-2.15 2.36-3.94 1.17-1.8 2.62-3.44h-43.6q-1.45 0-2.52-1.07t-1.07-2.52v-10.52ZM498.68 310q0 11.91-2.55 20.7-2.55 8.78-7.06 14.52-4.5 5.73-10.64 8.53-6.15 2.81-13.26 2.81-7.12 0-13.2-2.81-6.08-2.8-10.56-8.53-4.47-5.74-6.99-14.52-2.52-8.79-2.52-20.7 0-11.97 2.52-20.73 2.52-8.75 6.99-14.49 4.48-5.73 10.56-8.53 6.08-2.81 13.2-2.81 7.11 0 13.26 2.81 6.14 2.8 10.64 8.53 4.51 5.74 7.06 14.49 2.55 8.76 2.55 20.73Zm-16.06 0q0-9.89-1.45-16.38-1.45-6.49-3.88-10.33-2.42-3.84-5.57-5.39-3.15-1.54-6.55-1.54-3.34 0-6.46 1.54-3.12 1.55-5.51 5.39-2.4 3.84-3.82 10.33-1.41 6.49-1.41 16.38 0 9.89 1.41 16.38 1.42 6.49 3.82 10.33 2.39 3.85 5.51 5.39 3.12 1.54 6.46 1.54 3.4 0 6.55-1.54t5.57-5.39q2.43-3.84 3.88-10.33 1.45-6.49 1.45-16.38Zm116.11 24.7-8.26 8.12-21.35-21.35-21.55 21.48-8.25-8.13 21.54-21.61-20.54-20.53 8.19-8.19 20.54 20.53 20.41-20.41 8.32 8.19-20.47 20.48 21.42 21.42Zm97.33-70.25-27.03 33.08-3.15 3.9q2.65-1.32 5.71-2.04 3.05-.73 6.58-.73 5.16 0 10.05 1.7 4.88 1.7 8.6 5.14 3.71 3.43 5.98 8.53 2.27 5.11 2.27 11.91 0 6.36-2.33 11.94-2.33 5.57-6.55 9.73t-10.18 6.55q-5.95 2.4-13.13 2.4-7.31 0-13.11-2.33-5.79-2.33-9.89-6.52-4.09-4.19-6.27-10.08-2.17-5.89-2.17-13.08 0-6.42 2.61-13.19 2.62-6.78 8.1-14.08l21.73-29.17q1.14-1.52 3.31-2.59 2.18-1.07 5.01-1.07h13.86Zm-23.5 79.38q3.72 0 6.84-1.26 3.12-1.26 5.35-3.53 2.24-2.26 3.5-5.32 1.26-3.06 1.26-6.65 0-3.9-1.2-7.02-1.2-3.12-3.4-5.29-2.21-2.18-5.29-3.31-3.09-1.13-6.81-1.13-3.71 0-6.74 1.26-3.02 1.26-5.16 3.49-2.15 2.24-3.34 5.29-1.2 3.06-1.2 6.59 0 3.78 1.04 6.9 1.04 3.11 3.09 5.32 2.04 2.2 5.07 3.43 3.02 1.23 6.99 1.23Zm75.1-2.77h23.37q2.52 0 4 1.42t1.48 3.75v9.32h-62.49v-5.17q0-1.57.66-3.3.66-1.74 2.11-3.12l27.65-27.72q3.47-3.53 6.21-6.74 2.74-3.22 4.57-6.37 1.82-3.15 2.8-6.39.98-3.24.98-6.84 0-3.27-.95-5.76-.94-2.49-2.67-4.19-1.74-1.7-4.16-2.55-2.43-.85-5.45-.85-2.77 0-5.14.79-2.36.78-4.19 2.2-1.82 1.42-3.08 3.31-1.26 1.89-1.89 4.16-1.07 2.89-2.78 3.84-1.7.94-4.91.44l-8.19-1.45q.95-6.55 3.65-11.5 2.71-4.94 6.78-8.25 4.06-3.31 9.32-4.98 5.26-1.67 11.31-1.67 6.3 0 11.53 1.86 5.23 1.86 8.94 5.26 3.72 3.41 5.8 8.19 2.08 4.79 2.08 10.65 0 5.04-1.48 9.32-1.48 4.29-3.97 8.19-2.49 3.91-5.83 7.56-3.34 3.66-6.99 7.44l-20.54 20.98q2.96-.88 5.89-1.36 2.93-.47 5.58-.47ZM852.24 310q0 11.91-2.55 20.7-2.56 8.78-7.06 14.52-4.5 5.73-10.65 8.53-6.14 2.81-13.26 2.81t-13.2-2.81q-6.08-2.8-10.55-8.53-4.47-5.74-6.99-14.52-2.52-8.79-2.52-20.7 0-11.97 2.52-20.73 2.52-8.75 6.99-14.49 4.47-5.73 10.55-8.53 6.08-2.81 13.2-2.81 7.12 0 13.26 2.81 6.15 2.8 10.65 8.53 4.5 5.74 7.06 14.49 2.55 8.76 2.55 20.73Zm-16.07 0q0-9.89-1.45-16.38-1.45-6.49-3.87-10.33-2.43-3.84-5.58-5.39-3.15-1.54-6.55-1.54-3.34 0-6.46 1.54-3.11 1.55-5.51 5.39-2.39 3.84-3.81 10.33T801.52 310q0 9.89 1.42 16.38 1.42 6.49 3.81 10.33 2.4 3.85 5.51 5.39 3.12 1.54 6.46 1.54 3.4 0 6.55-1.54t5.58-5.39q2.42-3.84 3.87-10.33 1.45-6.49 1.45-16.38Z"/></svg>